<?xml version="1.0" encoding="utf-8"?>
<!-- Generator: Adobe Illustrator 22.0.1, SVG Export Plug-In . SVG Version: 6.00 Build 0)  -->
<svg version="1.1" id="Layer_1" xmlns="http://www.w3.org/2000/svg" xmlns:xlink="http://www.w3.org/1999/xlink" x="0px" y="0px"
	 viewBox="0 0 500 500" style="enable-background:new 0 0 500 500;" xml:space="preserve">
<style type="text/css">
	.st0{fill:#FFFFFF;}
	.st1{fill:#084C7A;}
	.st2{fill:#008CFF;}
	.st3{fill:none;stroke:#084C7A;stroke-miterlimit:10;}
	.st4{opacity:0.2;fill:#084C7A;}
	.st5{fill:#144270;}
	.st6{fill:#9C9EA1;}
	.st7{opacity:0.2;fill:#008CFF;}
	.st8{fill:none;stroke:#000000;stroke-miterlimit:10;}
	.st9{opacity:0.2;fill:#FFFFFF;}
</style>
<g>
	<circle class="st0" cx="250.9" cy="250" r="250"/>
</g>
<g>
	<g>
		<g>
			<path class="st6" d="M202.2,433.8v14.7c-0.1,1.5-0.5,2.9-1.2,4c-0.3,0.5-0.6,1-1.1,1.5c-0.4,0.5-0.9,0.9-1.6,1.3
				c-0.6,0.4-1.3,0.7-2.1,0.9c-0.8,0.2-1.8,0.3-2.8,0.3c-1.1,0-2-0.1-2.8-0.3c-0.8-0.2-1.5-0.5-2.1-0.9c-0.6-0.4-1.1-0.8-1.6-1.3
				c-0.4-0.5-0.8-1-1.1-1.5c-0.7-1.2-1.1-2.5-1.2-4v-14.7h3.3v14.7c0,0.6,0.1,1.2,0.2,1.6c0.2,0.5,0.4,0.9,0.6,1.2
				c0.3,0.3,0.5,0.6,0.9,0.9c0.3,0.2,0.7,0.4,1,0.6c0.8,0.4,1.7,0.6,2.7,0.6c1,0,1.9-0.2,2.7-0.6c0.3-0.2,0.7-0.3,1-0.6
				c0.3-0.2,0.6-0.5,0.9-0.9c0.3-0.3,0.5-0.7,0.6-1.2c0.2-0.5,0.2-1,0.2-1.6v-14.7H202.2z"/>
			<path class="st6" d="M202.5,428v3.1h-9.3V427h-1.7v-3.1h3.3c0.3,0,0.5,0.1,0.7,0.2c0.2,0.1,0.4,0.2,0.5,0.4s0.2,0.5,0.2,0.8v2.7
				H202.5z"/>
			<path class="st6" d="M209.9,433.7c0.1,0,0.3,0,0.6,0c0.3,0,0.7,0.1,1.2,0.2c0.4,0.1,0.9,0.3,1.4,0.6c0.5,0.3,0.9,0.6,1.3,1.1
				c0.4,0.5,0.8,1.1,1,1.9c0.3,0.8,0.4,1.7,0.4,2.8v16h-3.3v-16c0-0.6-0.1-1.1-0.3-1.6c-0.1-0.2-0.2-0.4-0.3-0.6
				c-0.1-0.2-0.3-0.4-0.5-0.5c-0.2-0.2-0.4-0.3-0.6-0.4s-0.5-0.1-0.8-0.1c-0.6,0-1,0.1-1.4,0.2c-0.4,0.1-0.7,0.3-0.9,0.4
				c-0.3,0.2-0.4,0.3-0.6,0.5c-0.1,0.2-0.3,0.3-0.3,0.3l-2.3-2.4c0.4-0.4,0.8-0.8,1.4-1.2c0.5-0.3,1-0.6,1.7-0.8
				C208.1,433.8,208.9,433.7,209.9,433.7z"/>
			<path class="st6" d="M223.7,433.8v13.9c0,0.9,0.1,1.7,0.4,2.4c0.2,0.6,0.6,1.2,0.9,1.6c0.4,0.4,0.8,0.7,1.2,1
				c0.4,0.2,0.9,0.4,1.3,0.5c0.4,0.1,0.8,0.2,1.1,0.2c0.3,0,0.5,0,0.6,0c0.9,0,1.6-0.1,2.2-0.4c0.6-0.3,1.1-0.6,1.5-1
				c0.4-0.4,0.7-0.8,0.9-1.3c0.2-0.5,0.4-0.9,0.5-1.3c0.1-0.4,0.2-0.8,0.2-1.1c0-0.3,0-0.5,0-0.5v-13.9h3.3v22.4h-3.3v-3.1
				c0,0.4-0.1,0.8-0.3,1.1c-0.2,0.3-0.4,0.6-0.6,0.8c-0.3,0.2-0.5,0.4-0.8,0.6c-0.3,0.2-0.6,0.3-1,0.4c-0.8,0.3-1.6,0.4-2.6,0.5
				h-0.8c-1.3,0-2.3-0.2-3.2-0.5s-1.6-0.8-2.2-1.3c-0.6-0.5-1.1-1.1-1.4-1.8c-0.3-0.7-0.6-1.3-0.8-2c-0.2-0.6-0.3-1.2-0.3-1.7
				c0-0.5-0.1-0.9-0.1-1.1v-0.3v-13.9H223.7z"/>
			<path class="st6" d="M245.6,433.8v13.9c0,0.9,0.1,1.7,0.4,2.4c0.2,0.6,0.6,1.2,0.9,1.6c0.4,0.4,0.8,0.7,1.2,1
				c0.4,0.2,0.9,0.4,1.3,0.5c0.4,0.1,0.8,0.2,1.1,0.2c0.3,0,0.5,0,0.6,0c0.9,0,1.6-0.1,2.2-0.4c0.6-0.3,1.1-0.6,1.5-1
				c0.4-0.4,0.7-0.8,0.9-1.3c0.2-0.5,0.4-0.9,0.5-1.3c0.1-0.4,0.2-0.8,0.2-1.1c0-0.3,0-0.5,0-0.5v-13.9h3.3v22.4h-3.3v-3.1
				c0,0.4-0.1,0.8-0.3,1.1c-0.2,0.3-0.4,0.6-0.6,0.8c-0.3,0.2-0.5,0.4-0.8,0.6c-0.3,0.2-0.6,0.3-1,0.4c-0.8,0.3-1.6,0.4-2.6,0.5
				h-0.8c-1.3,0-2.3-0.2-3.2-0.5s-1.6-0.8-2.2-1.3s-1.1-1.1-1.4-1.8c-0.3-0.7-0.6-1.3-0.8-2c-0.2-0.6-0.3-1.2-0.3-1.7
				c0-0.5-0.1-0.9-0.1-1.1v-0.3v-13.9H245.6z"/>
			<path class="st6" d="M257.6,424.8v6.3h-3.1v-6.3H257.6z"/>
			<path class="st6" d="M267.3,433.7c0.1,0,0.3,0,0.6,0c0.3,0,0.7,0.1,1.2,0.2c0.4,0.1,0.9,0.3,1.4,0.6c0.5,0.3,0.9,0.6,1.3,1.1
				c0.4,0.5,0.8,1.1,1,1.9c0.3,0.8,0.4,1.7,0.4,2.8v16H270v-16c0-0.6-0.1-1.1-0.3-1.6c-0.1-0.2-0.2-0.4-0.3-0.6
				c-0.1-0.2-0.3-0.4-0.5-0.5s-0.4-0.3-0.6-0.4c-0.2-0.1-0.5-0.1-0.8-0.1c-0.6,0-1,0.1-1.4,0.2c-0.4,0.1-0.7,0.3-0.9,0.4
				c-0.3,0.2-0.4,0.3-0.6,0.5c-0.1,0.2-0.3,0.3-0.3,0.3l-2.3-2.4c0.4-0.4,0.8-0.8,1.4-1.2c0.5-0.3,1-0.6,1.7-0.8
				C265.6,433.8,266.4,433.7,267.3,433.7z"/>
			<path class="st6" d="M295.1,448.5c-0.1,1.5-0.5,2.9-1.2,4c-0.3,0.5-0.6,1-1.1,1.5c-0.4,0.5-1,0.9-1.6,1.3
				c-0.6,0.4-1.3,0.7-2.1,0.9c-0.8,0.2-1.7,0.3-2.8,0.3c-1.1,0-2-0.1-2.8-0.3c-0.8-0.2-1.5-0.5-2.1-0.9c-0.6-0.4-1.1-0.8-1.6-1.3
				c-0.4-0.5-0.8-1-1.1-1.5c-0.7-1.2-1.1-2.5-1.2-4V444h6.3v3.1h-2.9v1.4c0,0.6,0.1,1.2,0.2,1.6c0.2,0.5,0.4,0.9,0.6,1.2
				c0.3,0.3,0.5,0.6,0.9,0.9c0.3,0.2,0.7,0.4,1,0.6c0.8,0.4,1.7,0.6,2.7,0.6c1,0,1.9-0.2,2.7-0.6c0.3-0.2,0.7-0.3,1-0.6
				c0.3-0.2,0.6-0.5,0.9-0.9c0.3-0.3,0.5-0.7,0.6-1.2c0.2-0.5,0.2-1,0.2-1.6v-6.8c0-0.6-0.1-1.1-0.2-1.5c-0.2-0.4-0.4-0.8-0.6-1.2
				c-0.3-0.3-0.6-0.6-0.9-0.8c-0.3-0.2-0.7-0.4-1-0.6c-0.8-0.3-1.7-0.5-2.7-0.6h-0.3c-0.2,0-0.6,0-1,0.1c-0.5,0.1-0.9,0.2-1.5,0.5
				c-0.5,0.2-1,0.6-1.5,1c-0.5,0.4-0.8,1-1,1.8h-3.3c0.1-0.4,0.2-0.8,0.4-1.3c0.2-0.5,0.4-1,0.7-1.5c0.3-0.5,0.6-1,1.1-1.5
				c0.4-0.5,0.9-0.9,1.5-1.3c0.6-0.4,1.3-0.7,2.1-0.9c0.8-0.2,1.7-0.3,2.8-0.3c1.1,0,2,0.1,2.8,0.3c0.8,0.2,1.5,0.5,2.1,0.9
				c0.6,0.4,1.1,0.8,1.6,1.3s0.8,1,1.1,1.5c0.7,1.2,1.1,2.5,1.2,4V448.5z"/>
			<path class="st6" d="M315.3,433.8v16.1c0,0.9-0.1,1.8-0.4,2.4c-0.3,0.7-0.6,1.3-1.1,1.7c-0.4,0.5-0.9,0.8-1.4,1.1s-1,0.5-1.5,0.6
				c-0.5,0.1-0.9,0.2-1.3,0.3c-0.4,0-0.7,0.1-0.8,0.1h-4.2c-1.1,0-2-0.1-2.8-0.3c-0.8-0.2-1.4-0.5-2-0.9c-0.5-0.4-0.9-0.8-1.3-1.2
				c-0.3-0.5-0.6-0.9-0.7-1.3c-0.2-0.4-0.3-0.9-0.3-1.3c0-0.4-0.1-0.7-0.1-0.9c0-0.9,0.2-1.6,0.5-2.2c0.3-0.6,0.7-1.1,1.1-1.5
				c0.4-0.4,0.8-0.7,1.2-0.8c0.4-0.2,0.6-0.3,0.7-0.3c-0.4-0.1-0.8-0.2-1.2-0.4c-0.3-0.2-0.6-0.4-0.9-0.7c-0.3-0.3-0.5-0.5-0.6-0.8
				c-0.2-0.3-0.3-0.6-0.4-0.9c-0.3-0.7-0.4-1.4-0.5-2.3c0-0.8,0.1-1.5,0.2-2.1c0.2-0.6,0.4-1.2,0.6-1.6c0.3-0.5,0.5-0.8,0.9-1.2
				c0.3-0.3,0.7-0.6,1-0.8c0.8-0.5,1.7-0.7,2.8-0.8h4.5v3.1h-2.7c-0.5,0-0.9,0.1-1.3,0.1c-0.4,0.1-0.7,0.2-1,0.4
				c-0.3,0.2-0.5,0.3-0.7,0.5c-0.2,0.2-0.3,0.4-0.5,0.6c-0.3,0.5-0.4,1-0.5,1.7c0,0.6,0.1,1,0.3,1.4c0.2,0.4,0.4,0.7,0.7,1
				c0.3,0.2,0.6,0.4,0.9,0.6c0.3,0.1,0.6,0.2,0.9,0.3c0.3,0.1,0.5,0.1,0.8,0.1c0.2,0,0.3,0,0.4,0h2.7v3.1h-2.7
				c-0.6,0-1.1,0.1-1.5,0.2c-0.4,0.1-0.7,0.3-1,0.5c-0.3,0.2-0.5,0.4-0.6,0.6s-0.3,0.5-0.3,0.7c-0.1,0.2-0.1,0.4-0.1,0.6
				c0,0.2,0,0.3,0,0.3c0,0.6,0.1,1,0.2,1.4c0.2,0.4,0.3,0.7,0.6,0.9c0.2,0.2,0.5,0.4,0.8,0.6c0.3,0.1,0.6,0.2,0.8,0.3
				c0.3,0.1,0.5,0.1,0.7,0.1c0.2,0,0.4,0,0.4,0h0.1h4c0.8,0,1.4-0.2,1.9-0.5c0.4-0.3,0.8-0.7,1-1.1c0.3-0.5,0.4-1,0.5-1.6v-16.1
				H315.3z"/>
			<path class="st6" d="M314.6,457.9v5.7c0,0.4-0.1,0.7-0.4,1c-0.2,0.3-0.5,0.4-0.9,0.4H309c-0.4,0-0.7-0.1-1-0.4
				c-0.3-0.3-0.4-0.6-0.4-1v-3h-1.4v-2.7h2.6c0.4,0,0.7,0.1,1,0.4c0.2,0.1,0.3,0.2,0.3,0.4c0.1,0.2,0.1,0.3,0.1,0.5v3h1.7v-4.4
				H314.6z"/>
			<path class="st6" d="M313.3,424.8v6.3h-3.1v-6.3H313.3z"/>
		</g>
	</g>
	<polygon class="st1" points="458.8,218.4 458.9,218.4 388.4,161.4 388.4,161.4 	"/>
	<polygon class="st4" points="396.9,218.4 375.6,339.3 318.6,339.3 318.6,339.3 375.6,339.3 396.9,218.4 458.9,218.4 458.8,218.4 	
		"/>
	<polygon class="st4" points="388.4,161.4 399.7,83 399.7,83 388.4,161.4 	"/>
	<path class="st2" d="M329.1,276.4c0,0.1,0,0.3-0.1,0.4C329,276.6,329,276.5,329.1,276.4z"/>
	<path class="st2" d="M329.8,269.2c-0.1,1.4-0.2,3.2-0.5,5.2C329.6,272.4,329.7,270.6,329.8,269.2z"/>
	<path class="st7" d="M329.3,274.4c-0.1,0.6-0.2,1.3-0.3,2C329.2,275.7,329.3,275,329.3,274.4z"/>
	<polygon class="st7" points="329.9,192.9 250,156.4 250,156.4 329.9,192.9 	"/>
	<path class="st2" d="M329.9,265.4v-72.6L250,156.4l-79.9,36.4v72.6c0,0-3,68.2,77.3,84.5c-5.1-22-21.4-74-66.8-103
		c0,0,32.7-5.3,67.5,41.1c0,0,51-60.5,70.8-55.2c0,0-55,56.5-62.8,116.4C332.7,331.6,329.9,265.4,329.9,265.4z M247.6,266.5
		c-11.2,0-20.3-10.6-20.3-23.6c0-13,9.1-23.6,20.3-23.6c11.2,0,20.3,10.6,20.3,23.6C267.9,256,258.8,266.5,247.6,266.5z"/>
	<g>
		<path class="st1" d="M124.8,390.3c-0.7-0.8-1.5-1.4-2.4-1.9c-0.5-0.3-1-0.5-1.5-0.7c0.3-0.2,0.6-0.4,0.9-0.6
			c0.7-0.5,1.2-1.1,1.7-1.8c0.4-0.7,0.8-1.4,1-2.2c0.2-0.8,0.3-1.7,0.3-2.6c0-1.6-0.3-3-0.9-4.2c-0.6-1.2-1.4-2.2-2.5-3
			c-1.1-0.8-2.4-1.4-4-1.7c-1.5-0.4-3.5-0.6-5.7-0.6h-8.9c-0.7,0-1.4,0.2-1.9,0.7c-0.5,0.5-0.8,1.2-0.8,2.1v31c0,1,0.3,1.7,0.8,2.1
			c0.5,0.4,1.1,0.7,1.9,0.7h9.5c1.5,0,2.8-0.1,4-0.3c1.2-0.2,2.3-0.5,3.4-0.8c1.1-0.4,2-0.9,2.9-1.5c0.9-0.6,1.7-1.3,2.3-2.1
			c0.6-0.8,1.2-1.8,1.5-2.9c0.4-1.1,0.5-2.3,0.5-3.6c0-1.3-0.2-2.4-0.6-3.5C126,391.9,125.5,391,124.8,390.3z M113,401.1h-4.7v-9.1
			h3.8c1.3,0,2.3,0.1,3.1,0.3c0.8,0.2,1.4,0.5,1.9,0.9c0.5,0.4,0.8,0.9,1.1,1.4c0.2,0.6,0.4,1.3,0.4,2c0,0.7-0.1,1.3-0.4,1.9
			c-0.3,0.5-0.6,1-1,1.4c-0.4,0.4-1,0.7-1.6,0.8C114.8,401,114,401.1,113,401.1z M116.3,383.1c-0.2,0.5-0.4,1-0.8,1.3
			c-0.4,0.4-0.8,0.7-1.4,0.9c-0.6,0.2-1.3,0.3-2.3,0.3h-3.5v-8.3h3.2c1.1,0,1.9,0.1,2.5,0.3c0.6,0.2,1.1,0.4,1.5,0.8
			c0.4,0.3,0.7,0.7,0.8,1.2c0.2,0.5,0.3,1.1,0.3,1.7C116.6,382,116.5,382.5,116.3,383.1z"/>
		<path class="st1" d="M161.4,404.2l-11-31.6c-0.1-0.4-0.3-0.7-0.5-1c-0.2-0.3-0.6-0.5-1-0.6c-0.4-0.1-0.9-0.2-1.6-0.2
			c-0.6,0-1.5,0-2.6,0c-0.9,0-1.7,0-2.3,0c-0.6,0-1.1,0.1-1.5,0.2c-0.4,0.1-0.7,0.3-0.9,0.6c-0.2,0.2-0.3,0.5-0.5,0.9l-11,31.6
			c-0.2,0.7-0.4,1.2-0.4,1.6c-0.1,0.5,0,1,0.3,1.3c0.3,0.3,0.7,0.5,1.3,0.6c0.5,0.1,1.2,0.1,2,0.1c0.8,0,1.4,0,2-0.1
			c0.5,0,1-0.1,1.3-0.2c0.4-0.1,0.6-0.3,0.8-0.6c0.1-0.2,0.3-0.5,0.4-0.8l2.1-6.6h12.7l2.3,6.8c0.1,0.3,0.2,0.5,0.4,0.7
			c0.2,0.2,0.5,0.4,0.8,0.5c0.3,0.1,0.8,0.2,1.3,0.2c0.5,0,1.3,0,2.2,0c0.9,0,1.6,0,2.2-0.1c0.6-0.1,1.1-0.2,1.4-0.5
			c0.2-0.2,0.5-0.6,0.4-1.3C161.8,405.5,161.6,404.9,161.4,404.2z M148.9,392.9h-8.7l4.4-13.1L148.9,392.9z"/>
		<path class="st1" d="M194.9,371.2c-0.3-0.1-0.7-0.2-1.1-0.3c-0.4,0-1-0.1-1.6-0.1c-0.7,0-1.2,0-1.7,0.1c-0.5,0-0.9,0.1-1.2,0.3
			c-0.3,0.1-0.6,0.3-0.8,0.5c-0.2,0.2-0.3,0.5-0.3,0.8v16.7c0,1.3,0,2.6,0,4c0,0.5,0,1.1,0,1.6c0,0,0,0,0,0
			c-0.3-0.7-0.7-1.5-1.1-2.2c-0.4-0.8-0.8-1.5-1.1-2.3c-0.4-0.8-0.8-1.5-1.2-2.3l-6.9-13c-0.4-0.7-0.7-1.4-1.1-1.9
			c-0.4-0.5-0.8-1-1.2-1.3c-0.4-0.3-0.9-0.5-1.5-0.7c-0.5-0.1-1.1-0.2-1.9-0.2h-3.9c-0.9,0-1.6,0.3-2.2,0.8
			c-0.6,0.5-0.9,1.3-0.9,2.3v32c0,0.3,0.1,0.5,0.2,0.8c0.1,0.2,0.4,0.4,0.7,0.6c0.3,0.1,0.6,0.2,1.1,0.3c0.4,0.1,1,0.1,1.7,0.1
			c0.7,0,1.2,0,1.7-0.1c0.5-0.1,0.8-0.1,1.1-0.3c0.3-0.1,0.6-0.3,0.7-0.6c0.2-0.2,0.2-0.5,0.2-0.8v-18.6c0-1.4,0-2.8-0.1-4.1
			c0-0.4,0-0.9,0-1.3c0.1,0.3,0.3,0.6,0.4,0.9c0.5,1.1,1.1,2.2,1.6,3.2l8.9,16.6c0.5,0.9,0.9,1.7,1.3,2.3c0.4,0.6,0.8,1.1,1.2,1.5
			c0.4,0.4,0.9,0.7,1.5,0.8c0.5,0.1,1.1,0.2,1.8,0.2h3.1c0.4,0,0.8-0.1,1.2-0.2c0.4-0.1,0.8-0.3,1.1-0.6c0.3-0.3,0.5-0.6,0.7-1
			c0.2-0.4,0.3-0.8,0.3-1.3v-32c0-0.3-0.1-0.5-0.2-0.8C195.4,371.6,195.2,371.4,194.9,371.2z"/>
		<path class="st1" d="M244.7,371.2c-0.3-0.1-0.7-0.2-1.1-0.3c-0.4,0-1-0.1-1.6-0.1c-0.7,0-1.2,0-1.7,0.1c-0.5,0-0.9,0.1-1.2,0.3
			c-0.3,0.1-0.6,0.3-0.8,0.5c-0.2,0.2-0.3,0.5-0.3,0.8v16.7c0,1.3,0,2.6,0,4c0,0.5,0,1.1,0,1.6c0,0,0,0,0,0
			c-0.3-0.7-0.7-1.5-1.1-2.2c-0.4-0.8-0.8-1.5-1.1-2.3c-0.4-0.8-0.8-1.5-1.2-2.3l-6.9-13c-0.4-0.7-0.7-1.4-1.1-1.9
			c-0.4-0.5-0.8-1-1.2-1.3c-0.4-0.3-0.9-0.5-1.5-0.7c-0.5-0.1-1.1-0.2-1.9-0.2h-3.9c-0.9,0-1.6,0.3-2.2,0.8
			c-0.6,0.5-0.9,1.3-0.9,2.3v32c0,0.3,0.1,0.5,0.2,0.8c0.1,0.2,0.4,0.4,0.7,0.6c0.3,0.1,0.6,0.2,1.1,0.3c0.4,0.1,1,0.1,1.7,0.1
			c0.7,0,1.2,0,1.7-0.1c0.5-0.1,0.8-0.1,1.1-0.3c0.3-0.1,0.6-0.3,0.7-0.6c0.2-0.2,0.2-0.5,0.2-0.8v-18.6c0-1.4,0-2.8-0.1-4.1
			c0-0.4,0-0.9,0-1.3c0.1,0.3,0.3,0.6,0.4,0.9c0.5,1.1,1.1,2.2,1.6,3.2l8.9,16.6c0.5,0.9,0.9,1.7,1.3,2.3c0.4,0.6,0.8,1.1,1.2,1.5
			c0.4,0.4,0.9,0.7,1.5,0.8c0.5,0.1,1.1,0.2,1.8,0.2h3.1c0.4,0,0.8-0.1,1.2-0.2c0.4-0.1,0.8-0.3,1.1-0.6c0.3-0.3,0.5-0.6,0.7-1
			c0.2-0.4,0.3-0.8,0.3-1.3v-32c0-0.3-0.1-0.5-0.2-0.8C245.3,371.6,245.1,371.4,244.7,371.2z"/>
		<path class="st1" d="M282.6,404.2l-11-31.6c-0.1-0.4-0.3-0.7-0.5-1c-0.2-0.3-0.6-0.5-1-0.6c-0.4-0.1-0.9-0.2-1.6-0.2
			c-0.6,0-1.5,0-2.6,0c-0.9,0-1.7,0-2.3,0c-0.6,0-1.1,0.1-1.5,0.2c-0.4,0.1-0.7,0.3-0.9,0.6c-0.2,0.2-0.3,0.5-0.5,0.9l-11,31.6
			c-0.2,0.7-0.4,1.2-0.4,1.6c-0.1,0.5,0,1,0.3,1.3c0.3,0.3,0.7,0.5,1.3,0.6c0.5,0.1,1.2,0.1,2,0.1c0.8,0,1.4,0,2-0.1
			c0.5,0,1-0.1,1.3-0.2c0.4-0.1,0.6-0.3,0.8-0.6c0.1-0.2,0.3-0.5,0.4-0.8l2.1-6.6h12.7l2.3,6.8c0.1,0.3,0.2,0.5,0.4,0.7
			c0.2,0.2,0.5,0.4,0.8,0.5c0.3,0.1,0.8,0.2,1.3,0.2c0.5,0,1.3,0,2.2,0c0.9,0,1.6,0,2.2-0.1c0.6-0.1,1.1-0.2,1.4-0.5
			c0.2-0.2,0.5-0.6,0.4-1.3C282.9,405.5,282.8,404.9,282.6,404.2z M270.1,392.9h-8.7l4.4-13.1L270.1,392.9z"/>
		<path class="st1" d="M323.3,370.9c-0.6,0-1.4-0.1-2.5-0.1c-0.8,0-1.4,0-1.9,0.1c-0.5,0-0.9,0.1-1.3,0.3c-0.4,0.1-0.6,0.3-0.8,0.6
			c-0.2,0.2-0.3,0.5-0.4,0.8l-3.9,8.7c-0.3,0.8-0.7,1.7-1.1,2.7c-0.2,0.6-0.4,1.1-0.6,1.7c-0.2-0.6-0.5-1.2-0.7-1.8
			c-0.4-0.9-0.8-1.8-1.2-2.7l-4-8.8c-0.1-0.3-0.3-0.5-0.5-0.7c-0.2-0.2-0.5-0.4-0.9-0.6c-0.3-0.1-0.8-0.2-1.3-0.2
			c-0.5,0-1.2-0.1-2.1-0.1c-1,0-1.8,0-2.4,0.1c-0.7,0.1-1.2,0.2-1.5,0.5c-0.2,0.2-0.5,0.6-0.3,1.4c0.1,0.4,0.4,1,0.7,1.7l9.7,19.3
			v12.4c0,0.3,0.1,0.6,0.3,0.8c0.2,0.2,0.4,0.4,0.8,0.5c0.3,0.1,0.7,0.2,1.2,0.2c0.5,0.1,1.1,0.1,1.8,0.1c0.7,0,1.3,0,1.8-0.1
			c0.5-0.1,0.9-0.1,1.2-0.2c0.4-0.1,0.6-0.3,0.8-0.5c0.2-0.2,0.3-0.5,0.3-0.8v-12.4l9.7-19.3c0.3-0.7,0.6-1.2,0.7-1.7
			c0.2-0.7,0-1.1-0.3-1.4C324.5,371.1,324,370.9,323.3,370.9z"/>
		<path class="st1" d="M357.6,371.1c-0.3-0.1-0.7-0.2-1.2-0.2c-0.5-0.1-1.1-0.1-1.8-0.1c-0.7,0-1.3,0-1.8,0.1
			c-0.5,0.1-0.9,0.1-1.2,0.2c-0.4,0.1-0.6,0.3-0.8,0.5c-0.2,0.2-0.3,0.5-0.3,0.8v21.4c0,1.2-0.2,2.3-0.5,3.2
			c-0.3,0.9-0.8,1.7-1.3,2.3c-0.6,0.6-1.3,1.1-2.1,1.4c-0.8,0.3-1.8,0.5-2.9,0.5c-1.1,0-2-0.2-2.9-0.5c-0.8-0.3-1.6-0.8-2.2-1.4
			c-0.6-0.6-1.1-1.4-1.4-2.4c-0.3-1-0.5-2.2-0.5-3.5v-21c0-0.3-0.1-0.6-0.3-0.8c-0.2-0.2-0.5-0.4-0.8-0.5c-0.3-0.1-0.7-0.2-1.2-0.2
			c-0.5-0.1-1.1-0.1-1.8-0.1c-0.7,0-1.3,0-1.8,0.1c-0.5,0.1-0.9,0.1-1.2,0.2c-0.4,0.1-0.7,0.3-0.8,0.5c-0.2,0.2-0.3,0.5-0.3,0.8
			v21.7c0,2.3,0.3,4.4,1,6.1c0.7,1.8,1.7,3.3,2.9,4.4c1.3,1.2,2.9,2.1,4.7,2.7c1.8,0.6,3.9,0.9,6.2,0.9c2.4,0,4.6-0.3,6.5-1
			c1.9-0.6,3.5-1.6,4.8-2.8c1.3-1.2,2.3-2.8,3-4.6c0.7-1.8,1-3.8,1-6v-21.4c0-0.3-0.1-0.6-0.3-0.8
			C358.2,371.4,358,371.3,357.6,371.1z"/>
		<path class="st1" d="M395.2,371.7c-0.2-0.2-0.4-0.4-0.8-0.5c-0.3-0.1-0.7-0.2-1.2-0.2c-0.5-0.1-1.1-0.1-1.8-0.1
			c-0.7,0-1.3,0-1.8,0.1c-0.5,0.1-0.9,0.1-1.2,0.2c-0.4,0.1-0.6,0.3-0.8,0.5c-0.2,0.2-0.3,0.5-0.3,0.8v21.4c0,1.2-0.2,2.3-0.5,3.2
			c-0.3,0.9-0.8,1.7-1.3,2.3c-0.6,0.6-1.3,1.1-2.1,1.4c-0.8,0.3-1.8,0.5-2.9,0.5c-1.1,0-2-0.2-2.9-0.5c-0.8-0.3-1.6-0.8-2.2-1.4
			c-0.6-0.6-1.1-1.4-1.4-2.4c-0.3-1-0.5-2.2-0.5-3.5v-21c0-0.3-0.1-0.6-0.3-0.8c-0.2-0.2-0.5-0.4-0.8-0.5c-0.3-0.1-0.7-0.2-1.2-0.2
			c-0.5-0.1-1.1-0.1-1.8-0.1c-0.7,0-1.3,0-1.8,0.1c-0.5,0.1-0.9,0.1-1.2,0.2c-0.4,0.1-0.7,0.3-0.8,0.5c-0.2,0.2-0.3,0.5-0.3,0.8
			v21.7c0,2.3,0.3,4.4,1,6.1c0.7,1.8,1.7,3.3,2.9,4.4c1.3,1.2,2.9,2.1,4.7,2.7c1.8,0.6,3.9,0.9,6.2,0.9c2.4,0,4.6-0.3,6.5-1
			c1.9-0.6,3.5-1.6,4.8-2.8c1.3-1.2,2.3-2.8,3-4.6c0.7-1.8,1-3.8,1-6v-21.4C395.5,372.2,395.4,371.9,395.2,371.7z"/>
	</g>
	<g>
		<path class="st1" d="M388.4,161.4L399.7,83l-50.4-24v70.6L250,49.1L41.1,218.4h62l21.3,120.9h57c-31.2-31.3-29.5-71.1-29.5-71.1
			V179l98.2-44.8l98.2,44.8v89.2c0,0,1.7,39.8-29.5,71.1h57l21.3-120.9h62L388.4,161.4z"/>
		<path class="st4" d="M388.4,161.4L399.7,83l-50.4-24v70.6L250,49.1v85.1l98.2,44.8v89.2c0,0,1.7,39.8-29.5,71.1h57l21.3-120.9h62
			L388.4,161.4z"/>
	</g>
</g>
</svg>
